<svg width="24" height="24" viewBox="0 0 24 24" fill="none" xmlns="http://www.w3.org/2000/svg">
<path fill-rule="evenodd" clip-rule="evenodd" d="M17.9399 6.83011C17.9399 10.0501 15.3299 12.6601 12.1099 12.6601C8.8899 12.6601 6.2799 10.0501 6.2799 6.83011C6.2799 3.61011 8.8899 1.00011 12.1099 1.00011C15.3299 1.00011 17.9399 3.61011 17.9399 6.83011" fill="#ACF8F5"/>
<path fill-rule="evenodd" clip-rule="evenodd" d="M23 11.8896C23 15.1096 20.39 17.7196 17.17 17.7196C13.95 17.7196 11.34 15.1096 11.34 11.8896C11.34 8.6696 13.95 6.0596 17.17 6.0596C20.39 6.0596 23 8.6696 23 11.8896" fill="#1B5ECE"/>
<path fill-rule="evenodd" clip-rule="evenodd" d="M17.9399 17.1699C17.9399 20.3899 15.3299 22.9999 12.1099 22.9999C8.8899 22.9999 6.2799 20.3899 6.2799 17.1699C6.2799 13.9499 8.8899 11.3399 12.1099 11.3399C15.3299 11.3399 17.9399 13.9499 17.9399 17.1699" fill="#6EEA9D"/>
<path fill-rule="evenodd" clip-rule="evenodd" d="M12.6602 11.8896C12.6602 15.1096 10.0502 17.7196 6.8302 17.7196C3.6102 17.7196 1.0002 15.1096 1.0002 11.8896C1.0002 8.6696 3.6102 6.0596 6.8302 6.0596C10.0502 6.0596 12.6602 8.6696 12.6602 11.8896" fill="#FFF680"/>
</svg>
