<svg width="24" height="24" viewBox="0 0 24 24" fill="none" xmlns="http://www.w3.org/2000/svg">
<path fill-rule="evenodd" clip-rule="evenodd" d="M0 12C0 5.38364 5.38364 0 12 0C18.6164 0 24 5.38364 24 12C24 18.6164 18.6164 24 12 24C5.38364 24 0 18.6164 0 12Z" fill="#FFF5D0"/>
<path d="M8.9616 20.4409L8.84333 13.6696L14.6607 13.603L14.7795 20.404L11.8706 18.9062L8.9616 20.4409Z" fill="#FFC24A"/>
<path d="M10.6704 4.115C10.5117 4.35687 10.2011 4.44808 9.93684 4.3304C8.89106 3.86471 7.71065 4.62332 7.69981 5.76805C7.69708 6.05732 7.48508 6.30198 7.19914 6.34585C6.06761 6.51949 5.48471 7.79585 6.09449 8.76471C6.24858 9.00954 6.20251 9.32997 5.98568 9.52147C5.12765 10.2793 5.32734 11.6682 6.36412 12.1536C6.62611 12.2762 6.76059 12.5707 6.68172 12.849C6.36961 13.9504 7.28849 15.0109 8.4231 14.8587C8.70982 14.8202 8.98216 14.9952 9.06628 15.272C9.39918 16.3673 10.7455 16.7627 11.6177 16.0212C11.8381 15.8338 12.1619 15.8338 12.3823 16.0212C13.2545 16.7627 14.6008 16.3673 14.9337 15.272C15.0178 14.9952 15.2902 14.8202 15.5769 14.8587C16.7115 15.0109 17.6304 13.9504 17.3183 12.849C17.2394 12.5707 17.3739 12.2762 17.6359 12.1536C18.6727 11.6682 18.8724 10.2793 18.0143 9.52147C17.7975 9.32997 17.7514 9.00954 17.9055 8.76471C18.5153 7.79585 17.9324 6.51949 16.8009 6.34585C16.5149 6.30198 16.3029 6.05732 16.3002 5.76805C16.2894 4.62332 15.1089 3.86471 14.0632 4.3304C13.7989 4.44808 13.4883 4.35687 13.3296 4.115C12.7016 3.15785 11.2984 3.15785 10.6704 4.115Z" fill="#FFC24A" stroke="#FFF5D0"/>
<path d="M12 7L12.723 9.00491L14.8532 9.07295L13.1698 10.3801L13.7634 12.4271L12 11.23L10.2366 12.4271L10.8302 10.3801L9.14683 9.07295L11.277 9.00491L12 7Z" fill="white"/>
</svg>
