<svg width="161" height="161" viewBox="0 0 161 161" fill="none" xmlns="http://www.w3.org/2000/svg">
<rect x="39" y="46" width="21" height="10" rx="2" fill="#27AE60"/>
<rect x="70" y="26" width="21" height="10" rx="2" fill="#27AE60"/>
<rect x="122" y="76" width="21" height="10" rx="2" transform="rotate(180 122 76)" fill="#6FCF97"/>
<rect x="96" y="116" width="20" height="10" rx="2" transform="rotate(180 96 116)" fill="#BFE0CD"/>
<rect x="39" y="66" width="21" height="10" rx="2" fill="#BFE0CD"/>
<rect x="39" y="86" width="11" height="10" rx="2" fill="#BFE0CD"/>
<rect x="85" y="86" width="12" height="10" rx="2" fill="#219653"/>
<rect x="76" y="46" width="12" height="10" rx="2" fill="#BFE0CD"/>
<rect x="63" y="66" width="21" height="10" rx="2" fill="#6FCF97"/>
<rect x="39" y="106" width="21" height="10" rx="2" fill="#6FCF97"/>
<rect x="63" y="46" width="10" height="10" rx="2" fill="#BFE0CD"/>
<rect x="98" y="76" width="11" height="10" rx="2" transform="rotate(180 98 76)" fill="#BFE0CD"/>
<rect x="104" y="36" width="11" height="10" rx="2" transform="rotate(180 104 36)" fill="#BFE0CD"/>
<rect x="73" y="116" width="10" height="10" rx="2" transform="rotate(180 73 116)" fill="#BFE0CD"/>
<rect x="53" y="86" width="29" height="10" rx="2" fill="#BFE0CD"/>
<rect x="100" y="86" width="20" height="10" rx="2" fill="#6FCF97"/>
<rect x="91" y="46" width="20" height="10" rx="2" fill="#BFE0CD"/>
<rect x="40" y="26" width="28" height="10" rx="2" fill="#BFE0CD"/>
</svg>
