<svg width="161" height="162" viewBox="0 0 161 162" fill="none" xmlns="http://www.w3.org/2000/svg">
<path d="M62 64L62 46.7924C62 45.8025 62.8025 45 63.7924 45L99 45" stroke="#F0E5C1" stroke-width="1.53137" stroke-linecap="round" stroke-linejoin="round"/>
<line x1="97.5432" y1="64.1031" x2="45.7188" y2="64.1031" stroke="#F0E5C1" stroke-width="1.53137"/>
<line x1="81.1189" y1="81.2616" x2="81.1189" y2="65.1299" stroke="#FFF5D4" stroke-width="0.896205"/>
<rect x="39.4454" y="57.9602" width="10.7545" height="10.7545" rx="2.68862" fill="#FFE297" stroke="#FFF5D4" stroke-width="1.79241"/>
<line x1="61.7657" y1="68" x2="61.7657" y2="99.0577" stroke="#F0E5C1" stroke-width="1.53137"/>
<rect x="56.4732" y="57.9602" width="10.7545" height="10.7545" rx="2.68862" fill="#FFDB5B" stroke="#FFF5D4" stroke-width="1.79241"/>
<rect x="56.4732" y="94.1038" width="10.7545" height="10.7545" rx="2.68862" fill="#FFDB5B" stroke="#FFF5D4" stroke-width="1.79241"/>
<line x1="81.5128" y1="68.2968" x2="81.5128" y2="99.3545" stroke="#F0E5C1" stroke-width="1.53137"/>
<line x1="117.1" y1="81.2375" x2="117.1" y2="99.3545" stroke="#F0E5C1" stroke-width="1.53137"/>
<line x1="97.7657" y1="45" x2="97.7657" y2="63.117" stroke="#F0E5C1" stroke-width="1.53137"/>
<line x1="82.0413" y1="81.1188" x2="113.099" y2="81.1188" stroke="#F0E5C1" stroke-width="1.53137"/>
<rect x="75.2936" y="57.9602" width="10.7545" height="10.7545" rx="2.68862" fill="#FFDB5B" stroke="#FFF5D4" stroke-width="1.79241"/>
<rect x="92.3215" y="57.9602" width="10.7545" height="10.7545" rx="2.68862" fill="#FFC42E" stroke="#FFF5D4" stroke-width="1.79241"/>
<rect x="92.3215" y="40.1038" width="10.7545" height="10.7545" rx="2.68862" fill="#FFC42E" stroke="#FFF5D4" stroke-width="1.79241"/>
<rect x="75.2936" y="75.8844" width="10.7545" height="10.7545" rx="2.68862" fill="#FFE297" stroke="#FFF5D4" stroke-width="1.79241"/>
<rect x="75.2936" y="93.8084" width="10.7545" height="10.7545" rx="2.68862" fill="#FFE297" stroke="#FFF5D4" stroke-width="1.79241"/>
<rect x="111.142" y="75.8844" width="10.7545" height="10.7545" rx="2.68862" fill="#FFDB5B" stroke="#FFF5D4" stroke-width="1.79241"/>
<rect x="111.142" y="93.8084" width="10.7545" height="10.7545" rx="2.68862" fill="#FFC42E" stroke="#FFF5D4" stroke-width="1.79241"/>
<rect x="92.3215" y="75.8844" width="10.7545" height="10.7545" rx="2.68862" fill="#FFE297" stroke="#FFF5D4" stroke-width="1.79241"/>
</svg>
