<svg width="161" height="161" viewBox="0 0 161 161" fill="none" xmlns="http://www.w3.org/2000/svg">
<line x1="60.0441" y1="38.8019" x2="30.3168" y2="100.959" stroke="#FBE8FF" stroke-width="1.80165"/>
<line x1="41.1173" y1="38.9064" x2="71.7454" y2="99.2617" stroke="#FBE8FF" stroke-width="1.80165"/>
<line x1="59.1339" y1="38.9064" x2="89.762" y2="99.2617" stroke="#FBE8FF" stroke-width="1.80165"/>
<line x1="78.9521" y1="38.9064" x2="109.58" y2="99.2617" stroke="#FBE8FF" stroke-width="1.80165"/>
<line x1="99.6626" y1="38.8901" x2="121.282" y2="79.4273" stroke="#FBE8FF" stroke-width="1.80165"/>
<line x1="118.569" y1="38.8708" x2="130.28" y2="59.5898" stroke="#FBE8FF" stroke-width="1.80165"/>
<line x1="41.1061" y1="38.8423" x2="29.3954" y2="60.4621" stroke="#FBE8FF" stroke-width="1.80165"/>
<line x1="79.8622" y1="38.8019" x2="50.135" y2="100.959" stroke="#FBE8FF" stroke-width="1.80165"/>
<line x1="98.7796" y1="38.8019" x2="69.0523" y2="100.959" stroke="#FBE8FF" stroke-width="1.80165"/>
<line x1="119.499" y1="38.8019" x2="89.7714" y2="100.959" stroke="#FBE8FF" stroke-width="1.80165"/>
<line x1="131.202" y1="57.7334" x2="109.583" y2="100.973" stroke="#FBE8FF" stroke-width="1.80165"/>
<line x1="113.173" y1="94.6915" x2="100.562" y2="118.113" stroke="#FBE8FF" stroke-width="1.80165"/>
<line x1="120.488" y1="79.8513" x2="38.5124" y2="79.8513" stroke="#FBE8FF" stroke-width="1.80165"/>
<line x1="109.678" y1="99.6694" x2="27.7025" y2="99.6694" stroke="#FBE8FF" stroke-width="1.80165"/>
<line x1="126.793" y1="59.1322" x2="28.6033" y2="59.1322" stroke="#FBE8FF" stroke-width="1.80165"/>
<circle cx="69.1405" cy="59.1322" r="5.40496" fill="#F6D0FF" stroke="#FDF5FF" stroke-width="1.80165"/>
<circle cx="29.5041" cy="100.57" r="5.40496" fill="#F6D0FF" stroke="#FDF5FF" stroke-width="1.80165"/>
<circle cx="110.579" cy="59.1322" r="5.40496" fill="#F6D0FF" stroke="#FDF5FF" stroke-width="1.80165"/>
<circle cx="79.9504" cy="39.3141" r="5.40496" fill="#F6D0FF" stroke="#FDF5FF" stroke-width="1.80165"/>
<circle cx="50.2231" cy="59.1322" r="5.40496" fill="#DEA3F3" stroke="#FDF5FF" stroke-width="1.80165"/>
<circle cx="60.1322" cy="39.3141" r="5.40496" fill="#DEA3F3" stroke="#FDF5FF" stroke-width="1.80165"/>
<circle cx="110.579" cy="98.7686" r="5.40496" fill="#9B51E0" stroke="#FDF5FF" stroke-width="1.80165"/>
<circle cx="29.5041" cy="59.1322" r="5.40496" fill="#F6D0FF" stroke="#FDF5FF" stroke-width="1.80165"/>
<circle cx="40.3141" cy="39.3141" r="5.40496" fill="#F6D0FF" stroke="#FDF5FF" stroke-width="1.80165"/>
<circle cx="40.3141" cy="78.9504" r="5.40496" fill="#F6D0FF" stroke="#FDF5FF" stroke-width="1.80165"/>
<circle cx="39.4132" cy="117.686" r="5.40496" fill="#F6D0FF" stroke="#FDF5FF" stroke-width="1.80165"/>
<circle cx="99.7686" cy="78.9504" r="5.40496" fill="#F6D0FF" stroke="#FDF5FF" stroke-width="1.80165"/>
<circle cx="98.8678" cy="117.686" r="5.40496" fill="#F6D0FF" stroke="#FDF5FF" stroke-width="1.80165"/>
<circle cx="70.9421" cy="98.7686" r="5.40496" fill="#9B51E0" stroke="#FDF5FF" stroke-width="1.80165"/>
<circle cx="88.9587" cy="59.1322" r="5.40496" fill="#F6D0FF" stroke="#FDF5FF" stroke-width="1.80165"/>
<circle cx="129.496" cy="59.1322" r="5.40496" fill="#F6D0FF" stroke="#FDF5FF" stroke-width="1.80165"/>
<circle cx="99.7686" cy="39.3141" r="5.40496" fill="#F6D0FF" stroke="#FDF5FF" stroke-width="1.80165"/>
<circle cx="79.9504" cy="78.9504" r="5.40496" fill="#9B51E0" stroke="#FDF5FF" stroke-width="1.80165"/>
<circle cx="79.0496" cy="117.686" r="5.40496" fill="#9B51E0" stroke="#FDF5FF" stroke-width="1.80165"/>
<circle cx="119.587" cy="39.3141" r="5.40496" fill="#9B51E0" stroke="#FDF5FF" stroke-width="1.80165"/>
<circle cx="90.7604" cy="98.7686" r="5.40496" fill="#DEA3F3" stroke="#FDF5FF" stroke-width="1.80165"/>
<circle cx="60.1322" cy="78.9504" r="5.40496" fill="#DEA3F3" stroke="#FDF5FF" stroke-width="1.80165"/>
<circle cx="59.2314" cy="117.686" r="5.40496" fill="#DEA3F3" stroke="#FDF5FF" stroke-width="1.80165"/>
<circle cx="119.587" cy="78.9504" r="5.40496" fill="#DEA3F3" stroke="#FDF5FF" stroke-width="1.80165"/>
<circle cx="51.1239" cy="98.7686" r="5.40496" fill="#DEA3F3" stroke="#FDF5FF" stroke-width="1.80165"/>
</svg>
