<svg width="24" height="24" viewBox="0 0 24 24" fill="none" xmlns="http://www.w3.org/2000/svg">
<path fill-rule="evenodd" clip-rule="evenodd" d="M0 12C0 5.38364 5.38364 0 12 0C18.6164 0 24 5.38364 24 12C24 18.6164 18.6164 24 12 24C5.38364 24 0 18.6164 0 12Z" fill="#EEEEEE"/>
<rect x="9" y="6" width="6" height="5" rx="1" stroke="#4F4F4F" stroke-width="2"/>
<path d="M5 9.71428C5 8.60971 5.89543 7.71428 7 7.71428H17C18.1046 7.71428 19 8.60971 19 9.71428V15C19 16.1046 18.1046 17 17 17H7C5.89543 17 5 16.1046 5 15V9.71428Z" fill="#4F4F4F"/>
</svg>
