<svg width="24" height="24" viewBox="0 0 24 24" fill="none" xmlns="http://www.w3.org/2000/svg">
<path fill-rule="evenodd" clip-rule="evenodd" d="M0 12C0 5.38364 5.38364 0 12 0C18.6164 0 24 5.38364 24 12C24 18.6164 18.6164 24 12 24C5.38364 24 0 18.6164 0 12Z" fill="#ddd"/>
<rect x="7" y="10" width="10" height="8" rx="4" fill="#222"/>
<path d="M11.2516 5.26276L5.25572 8.71478C4.25362 9.29172 4.25362 10.7377 5.25572 11.3147L11.2516 14.7667C11.7149 15.0334 12.2851 15.0334 12.7484 14.7667L18.7442 11.3147C19.7463 10.7377 19.7463 9.29172 18.7442 8.71478L12.7484 5.26276C12.2851 4.99602 11.7149 4.99602 11.2516 5.26276Z" fill="#222" stroke="#ddd"/>
<path fill-rule="evenodd" clip-rule="evenodd" d="M15.5981 12.5937L12 10.5963L14.3972 9L18 11.2396V16.25L15.5981 18V12.5937Z" fill="white"/>
</svg>
