<svg width="24" height="24" viewBox="0 0 24 24" fill="none" xmlns="http://www.w3.org/2000/svg">
<path fill-rule="evenodd" clip-rule="evenodd" d="M0 12C0 5.38364 5.38364 0 12 0C18.6164 0 24 5.38364 24 12C24 18.6164 18.6164 24 12 24C5.38364 24 0 18.6164 0 12Z" fill="#dddddd"/>
<path fill-rule="evenodd" clip-rule="evenodd" d="M9.5 6C6.46243 6 4 8.46243 4 11.5C4 13.2079 4.7785 14.734 6 15.7428V18.6484C6 19.1126 6.57753 19.3262 6.87963 18.9738L8.63007 16.9316C8.91342 16.9766 9.20398 17 9.5 17H15.5C18.5376 17 21 14.5376 21 11.5C21 8.46243 18.5376 6 15.5 6H9.5Z" fill="#222222"/>
<circle cx="8.5" cy="11.5" r="1.5" fill="white"/>
<circle cx="12.5" cy="11.5" r="1.5" fill="white"/>
<circle cx="16.5" cy="11.5" r="1.5" fill="white"/>
</svg>
